<svg xmlns="http://www.w3.org/2000/svg" xmlns:xlink="http://www.w3.org/1999/xlink" viewBox="0 0 490.92 180.92"><defs><linearGradient id="a"><stop offset="0" stop-color="#5e81ac"/><stop offset=".537" stop-color="#81a1c1"/><stop offset="1" stop-color="#5e81ac"/></linearGradient><linearGradient id="c" x1="-9.719" x2="512.708" y1="173.716" y2="8.107" gradientTransform="translate(4.499 .257)" gradientUnits="userSpaceOnUse" xlink:href="#a"/><filter id="b" width="1.023" height="1.064" x="-.011" y="-.032" color-interpolation-filters="sRGB"><feGaussianBlur stdDeviation="2.275"/></filter></defs><path fill="#000005" fill-rule="evenodd" d="M164.001 837.978v170h480v-170zm15 15h140v122.245l-70-121.245-70 121.245zm155 0h122.245l-121.245 70 121.245 70H334.002zm159.76 0h130.48l-65.24 113zm-19.76 4.76v130.48l-113-65.24zm15 12.996l70 121.244 70-121.244v122.244h-140zm-240 9.244l65.24 113h-130.48z" filter="url(#b)" opacity=".314" transform="translate(-158.542 -832.518)"/><path fill="url(#c)" fill-rule="evenodd" d="M7.959 3.717v170h480v-170zm15 15h140V140.96l-70-121.244-70 121.244zm155 0h122.244l-121.244 70 121.244 70H177.96zm159.76 0h130.48l-65.24 113zm-19.76 4.76v130.48l-113-65.24zm15 12.996l70 121.244 70-121.244v122.244h-140zm-240 9.244l65.24 113H27.72z" transform="translate(-4.499 -.257)"/></svg>